{
  "accessors": [
    {
      "bufferView": 2,
      "componentType": 5126,
      "count": 63,
      "max": [
        11.303606033325195,
        -1.030102014541626,
        35.686031341552734
      ],
      "min": [
        -1.3721940517425537,
        -1.8947360515594482,
        15.350720405578613
      ],
      "type": "VEC3"
    },
    {
      "bufferView": 2,
      "byteOffset": 756,
      "componentType": 5126,
      "count": 63,
      "max": [
        0.0,
        -1.0,
        0.0
      ],
      "min": [
        0.0,
        -1.0,
        0.0
      ],
      "type": "VEC3"
    },
    {
      "bufferView": 1,
      "componentType": 5126,
      "count": 63,
      "max": [
        0.8268759846687317,
        0.9320939779281616
      ],
      "min": [
        0.5012490153312683,
        0.34611499309539795
      ],
      "type": "VEC2"
    },
    {
      "bufferView": 0,
      "componentType": 5125,
      "count": 204,
      "type": "SCALAR"
    },
    {
      "bufferView": 2,
      "byteOffset": 1512,
      "componentType": 5126,
      "count": 196,
      "max": [
        22.990127563476563,
        7.598727226257324,
        12.777120590209961
      ],
      "min": [
        -13.065041542053223,
        2.5655720233917236,
        1.6621290445327759
      ],
      "type": "VEC3"
    },
    {
      "bufferView": 2,
      "byteOffset": 3864,
      "componentType": 5126,
      "count": 196,
      "max": [
        1.0,
        1.0,
        1.0
      ],
      "min": [
        -1.0,
        -1.0,
        -1.0
      ],
      "type": "VEC3"
    },
    {
      "bufferView": 1,
      "byteOffset": 504,
      "componentType": 5126,
      "count": 196,
      "max": [
        0.3310540020465851,
        0.9237610101699829
      ],
      "min": [
        0.2559019923210144,
        0.6985679864883423
      ],
      "type": "VEC2"
    },
    {
      "bufferView": 0,
      "byteOffset": 816,
      "componentType": 5125,
      "count": 522,
      "type": "SCALAR"
    },
    {
      "bufferView": 2,
      "byteOffset": 6216,
      "componentType": 5126,
      "count": 12464,
      "max": [
        22.990127563476563,
        14.053314208984375,
        50.45252990722656
      ],
      "min": [
        -13.065041542053223,
        -7.272944927215576,
        -0.47958898544311523
      ],
      "type": "VEC3"
    },
    {
      "bufferView": 2,
      "byteOffset": 155784,
      "componentType": 5126,
      "count": 12464,
      "max": [
        1.0,
        1.0,
        1.0
      ],
      "min": [
        -1.0,
        -1.0,
        -1.0
      ],
      "type": "VEC3"
    },
    {
      "bufferView": 1,
      "byteOffset": 2072,
      "componentType": 5126,
      "count": 12464,
      "max": [
        0.3806709945201874,
        0.9573379755020142
      ],
      "min": [
        0.03908799961209297,
        0.05088699981570244
      ],
      "type": "VEC2"
    },
    {
      "bufferView": 0,
      "byteOffset": 2904,
      "componentType": 5125,
      "count": 70506,
      "type": "SCALAR"
    },
    {
      "bufferView": 2,
      "byteOffset": 305352,
      "componentType": 5126,
      "count": 500,
      "max": [
        5.976661205291748,
        13.406098365783691,
        20.946975708007813
      ],
      "min": [
        3.976660966873169,
        12.944952011108398,
        14.506601333618164
      ],
      "type": "VEC3"
    },
    {
      "bufferView": 2,
      "byteOffset": 311352,
      "componentType": 5126,
      "count": 500,
      "max": [
        1.0,
        1.0,
        1.0
      ],
      "min": [
        -1.0,
        -1.0,
        -1.0
      ],
      "type": "VEC3"
    },
    {
      "bufferView": 1,
      "byteOffset": 101784,
      "componentType": 5126,
      "count": 500,
      "max": [
        0.0,
        0.0
      ],
      "min": [
        0.0,
        0.0
      ],
      "type": "VEC2"
    },
    {
      "bufferView": 0,
      "byteOffset": 284928,
      "componentType": 5125,
      "count": 996,
      "type": "SCALAR"
    }
  ],
  "asset": {
    "extras": {
      "author": "wallmasterr (https://sketchfab.com/wallmasterr)",
      "license": "CC-BY-4.0 (http://creativecommons.org/licenses/by/4.0/)",
      "source": "https://sketchfab.com/3d-models/mario-lego-d22ca8f9f1aa4bd9a3a21b9feae14c54",
      "title": "Mario Lego"
    },
    "generator": "Sketchfab-12.66.0",
    "version": "2.0"
  },
  "bufferViews": [
    {
      "buffer": 0,
      "byteLength": 288912,
      "name": "floatBufferViews",
      "target": 34963
    },
    {
      "buffer": 0,
      "byteLength": 105784,
      "byteOffset": 288912,
      "byteStride": 8,
      "name": "floatBufferViews",
      "target": 34962
    },
    {
      "buffer": 0,
      "byteLength": 317352,
      "byteOffset": 394696,
      "byteStride": 12,
      "name": "floatBufferViews",
      "target": 34962
    }
  ],
  "buffers": [
    {
      "byteLength": 712048,
      "uri": "scene.bin"
    }
  ],
  "images": [
    {
      "uri": "textures/Mario2_baseColor.png"
    }
  ],
  "materials": [
    {
      "doubleSided": true,
      "name": "Mario2",
      "pbrMetallicRoughness": {
        "baseColorTexture": {
          "index": 0
        },
        "metallicFactor": 0.0,
        "roughnessFactor": 0.8434915419926713
      }
    },
    {
      "doubleSided": true,
      "name": "mario1",
      "pbrMetallicRoughness": {
        "baseColorTexture": {
          "index": 0
        },
        "metallicFactor": 0.0,
        "roughnessFactor": 0.9619978683
      }
    },
    {
      "doubleSided": true,
      "name": "mario1_NONE",
      "pbrMetallicRoughness": {
        "baseColorTexture": {
          "index": 0
        },
        "metallicFactor": 0.0,
        "roughnessFactor": 0.9619978682943245
      }
    }
  ],
  "meshes": [
    {
      "name": "Object_0",
      "primitives": [
        {
          "attributes": {
            "NORMAL": 1,
            "POSITION": 0,
            "TEXCOORD_0": 2
          },
          "indices": 3,
          "material": 0,
          "mode": 4
        }
      ]
    },
    {
      "name": "Object_1",
      "primitives": [
        {
          "attributes": {
            "NORMAL": 5,
            "POSITION": 4,
            "TEXCOORD_0": 6
          },
          "indices": 7,
          "material": 1,
          "mode": 4
        }
      ]
    },
    {
      "name": "Object_2",
      "primitives": [
        {
          "attributes": {
            "NORMAL": 9,
            "POSITION": 8,
            "TEXCOORD_0": 10
          },
          "indices": 11,
          "material": 1,
          "mode": 4
        }
      ]
    },
    {
      "name": "Object_3",
      "primitives": [
        {
          "attributes": {
            "NORMAL": 13,
            "POSITION": 12,
            "TEXCOORD_0": 14
          },
          "indices": 15,
          "material": 2,
          "mode": 4
        }
      ]
    }
  ],
  "nodes": [
    {
      "children": [
        1
      ],
      "matrix": [
        0.06558309495449066,
        0.0,
        0.0,
        0.0,
        0.0,
        1.4562372408930693e-17,
        -0.06558309495449066,
        0.0,
        0.0,
        0.06558309495449066,
        1.4562372408930693e-17,
        0.0,
        0.0,
        0.0,
        0.0,
        1.0
      ],
      "name": "Sketchfab_model"
    },
    {
      "children": [
        2,
        3,
        4,
        5
      ],
      "name": "Mario lego5.obj.cleaner.materialmerger.gles"
    },
    {
      "mesh": 0,
      "name": "Object_2"
    },
    {
      "mesh": 1,
      "name": "Object_3"
    },
    {
      "mesh": 2,
      "name": "Object_4"
    },
    {
      "mesh": 3,
      "name": "Object_5"
    }
  ],
  "samplers": [
    {
      "magFilter": 9729,
      "minFilter": 9987,
      "wrapS": 10497,
      "wrapT": 10497
    }
  ],
  "scene": 0,
  "scenes": [
    {
      "name": "Sketchfab_Scene",
      "nodes": [
        0
      ]
    }
  ],
  "textures": [
    {
      "sampler": 0,
      "source": 0
    }
  ]
}
